<svg xmlns="http://www.w3.org/2000/svg" height="40" viewBox="0 -960 960 960" width="40"><path d="M72-160q-14.334 0-23.833-9.5-9.5-9.5-9.5-23.833V-260q0-34.666 17.833-63.166T105.333-366Q174.667-397.666 235-412.166q60.333-14.5 123.667-14.5 63.333 0 123.333 14.5T611.333-366q31 14.334 49.167 42.834 18.167 28.5 18.167 63.166v66.667q0 14.333-9.5 23.833-9.5 9.5-23.834 9.5H72Zm652.333 0q9.667-3.667 15.333-12.833Q745.333-182 745.333-195v-67.666q0-56.667-29.5-97.167t-79.167-66.833q63 7.333 118.667 22.5 55.667 15.166 94 35.5 34 19.333 53 46.166 19 26.834 19 59.834v69.333q0 14.333-9.5 23.833-9.5 9.5-23.833 9.5H724.333ZM358.667-480.667q-66 0-109.667-43.666Q205.333-568 205.333-634T249-743.666q43.667-43.667 109.667-43.667t109.666 43.667Q512-700 512-634t-43.667 109.667q-43.666 43.666-109.666 43.666ZM731.999-634q0 66-43.666 109.667-43.667 43.666-109.667 43.666-11 0-25.667-1.833-14.666-1.833-25.666-5.5 25-27.333 38.166-64.667Q578.666-590 578.666-634t-13.167-80q-13.166-36-38.166-66 12-3.666 25.666-5.5 13.667-1.833 25.667-1.833 66 0 109.667 43.667Q731.999-700 731.999-634Z"/></svg>